<svg width="449" height="71" viewBox="0 0 449 71" fill="none" xmlns="http://www.w3.org/2000/svg">
<path d="M119.224 51.9999C118.456 51.9999 118.024 51.5679 118.024 50.7999V19.3119C118.024 18.5439 118.456 18.1119 119.224 18.1119H123.496C124.264 18.1119 124.696 18.5439 124.696 19.3119V45.6159H144.328C145.096 45.6159 145.528 46.0479 145.528 46.8159V50.7999C145.528 51.5679 145.096 51.9999 144.328 51.9999H119.224Z" fill="#F4F4F5"/>
<path d="M178.189 51.9999C177.517 51.9999 177.037 51.7119 176.749 51.0879L174.493 46.1439H155.101L152.797 51.0879C152.509 51.6639 152.029 51.9999 151.357 51.9999H146.509C145.597 51.9999 145.213 51.4239 145.597 50.6079L160.861 18.9759C161.149 18.3999 161.581 18.1119 162.253 18.1119H167.341C168.013 18.1119 168.445 18.3999 168.733 18.9759L183.949 50.6079C184.333 51.4239 183.949 51.9999 183.037 51.9999H178.189ZM157.597 40.6719H171.997L164.845 25.0719L157.597 40.6719Z" fill="#F4F4F5"/>
<path d="M187.653 51.9999C186.885 51.9999 186.453 51.5679 186.453 50.7999V19.3119C186.453 18.5439 186.885 18.1119 187.653 18.1119H205.077C214.869 18.1119 218.277 22.2399 218.277 30.2559V31.3119C218.277 39.0879 214.869 43.2639 205.077 43.2639H193.125V50.7999C193.125 51.5679 192.693 51.9999 191.925 51.9999H187.653ZM193.125 36.9279H204.549C209.493 36.9279 211.605 35.8719 211.605 31.2639V30.2559C211.605 25.4079 209.589 24.4959 204.549 24.4959H193.125V36.9279Z" fill="#F4F4F5"/>
<path d="M243.169 51.9999C234.865 51.9999 231.985 48.8799 231.793 41.2959C231.793 40.8159 232.081 40.5759 232.513 40.5759H234.097C234.529 40.5759 234.817 40.8159 234.817 41.2959C234.961 47.2479 236.929 49.0239 243.169 49.0239H252.097C258.721 49.0239 260.833 47.5359 260.833 42.6879C260.833 38.1759 258.625 37.2639 252.961 36.8319L242.593 35.9679C235.201 35.3439 232.033 33.6159 232.033 27.3759C232.033 20.9919 234.865 18.1119 243.793 18.1119H252.001C260.305 18.1119 263.185 21.2319 263.377 28.8159C263.377 29.2959 263.089 29.5359 262.657 29.5359H261.073C260.641 29.5359 260.353 29.2959 260.353 28.8159C260.209 22.8639 258.241 21.0879 252.001 21.0879H243.841C237.121 21.0879 235.057 22.5279 235.057 27.3759C235.057 31.8879 237.169 32.6559 242.881 33.1359L253.249 33.9999C260.593 34.5759 263.857 36.4959 263.857 42.6879C263.857 49.0719 261.025 51.9999 252.097 51.9999H243.169Z" fill="#F4F4F5"/>
<path d="M278.335 51.9999C277.903 51.9999 277.615 51.7119 277.615 51.2799V21.0879H264.943C264.511 21.0879 264.223 20.7999 264.223 20.3679V18.8319C264.223 18.3999 264.511 18.1119 264.943 18.1119H293.311C293.743 18.1119 294.031 18.3999 294.031 18.8319V20.3679C294.031 20.7999 293.743 21.0879 293.311 21.0879H280.687V51.2799C280.687 51.7119 280.399 51.9999 279.967 51.9999H278.335Z" fill="#F4F4F5"/>
<path d="M308.252 51.9999C299.756 51.9999 296.876 48.0159 296.876 40.3359V18.8319C296.876 18.3999 297.164 18.1119 297.596 18.1119H299.18C299.612 18.1119 299.9 18.3999 299.9 18.8319V40.3839C299.9 46.9119 302.06 49.0239 308.252 49.0239H318.236C324.428 49.0239 326.54 46.9119 326.54 40.3839V18.8319C326.54 18.3999 326.828 18.1119 327.26 18.1119H328.892C329.324 18.1119 329.612 18.3999 329.612 18.8319V40.3359C329.612 48.0159 326.732 51.9999 318.236 51.9999H308.252Z" fill="#F4F4F5"/>
<path d="M335.391 51.9999C334.959 51.9999 334.671 51.7119 334.671 51.2799V18.8319C334.671 18.3999 334.959 18.1119 335.391 18.1119H356.223C364.623 18.1119 367.551 21.8079 367.551 30.8319V39.4719C367.551 48.4479 364.623 51.9999 356.223 51.9999H335.391ZM337.695 49.0239H356.031C362.511 49.0239 364.527 46.9599 364.527 39.4719V30.8319C364.527 23.2479 362.511 21.0879 356.031 21.0879H337.695V49.0239Z" fill="#F4F4F5"/>
<path d="M372.488 51.9999C372.056 51.9999 371.768 51.7119 371.768 51.2799V18.8319C371.768 18.3999 372.056 18.1119 372.488 18.1119H374.072C374.504 18.1119 374.792 18.3999 374.792 18.8319V51.2799C374.792 51.7119 374.504 51.9999 374.072 51.9999H372.488Z" fill="#F4F4F5"/>
<path d="M390.414 51.9999C381.918 51.9999 379.038 48.0159 379.038 40.3359V29.8239C379.038 22.0959 381.918 18.1119 390.414 18.1119H402.222C410.718 18.1119 413.598 22.0959 413.598 29.8239V40.3359C413.598 48.0159 410.718 51.9999 402.222 51.9999H390.414ZM390.414 49.0239H402.222C408.414 49.0239 410.574 46.9119 410.574 40.3839V29.7759C410.574 23.1999 408.462 21.0879 402.222 21.0879H390.414C384.222 21.0879 382.062 23.1999 382.062 29.7759V40.3839C382.062 46.9119 384.222 49.0239 390.414 49.0239Z" fill="#F4F4F5"/>
<path d="M428.157 51.9999C419.853 51.9999 416.973 48.8799 416.781 41.2959C416.781 40.8159 417.069 40.5759 417.501 40.5759H419.085C419.517 40.5759 419.805 40.8159 419.805 41.2959C419.949 47.2479 421.917 49.0239 428.157 49.0239H437.085C443.709 49.0239 445.821 47.5359 445.821 42.6879C445.821 38.1759 443.613 37.2639 437.949 36.8319L427.581 35.9679C420.189 35.3439 417.021 33.6159 417.021 27.3759C417.021 20.9919 419.853 18.1119 428.781 18.1119H436.989C445.293 18.1119 448.173 21.2319 448.365 28.8159C448.365 29.2959 448.077 29.5359 447.645 29.5359H446.061C445.629 29.5359 445.341 29.2959 445.341 28.8159C445.197 22.8639 443.229 21.0879 436.989 21.0879H428.829C422.109 21.0879 420.045 22.5279 420.045 27.3759C420.045 31.8879 422.157 32.6559 427.869 33.1359L438.237 33.9999C445.581 34.5759 448.845 36.4959 448.845 42.6879C448.845 49.0719 446.013 51.9999 437.085 51.9999H428.157Z" fill="#F4F4F5"/>
<path d="M87.6939 37.6819H91.6531C92.4816 37.6819 93.1531 37.0104 93.1531 36.1819V33.1249C93.1531 32.2965 92.4816 31.6249 91.6531 31.6249H87.6939C86.8655 31.6249 86.1939 32.2965 86.1939 33.1249V36.1819C86.1939 37.0104 86.8655 37.6819 87.6939 37.6819Z" fill="#0D9488"/>
<path d="M76.9547 42.2442H80.9139C81.7423 42.2442 82.4139 41.5726 82.4139 40.7442V34.6204C82.4139 33.792 81.7423 33.1204 80.9139 33.1204H76.9547C76.1262 33.1204 75.4547 33.792 75.4547 34.6204V40.7442C75.4547 41.5726 76.1262 42.2442 76.9547 42.2442Z" fill="#14B8A6"/>
<path d="M66.2154 50.9157H70.1747C71.0031 50.9157 71.6747 50.2441 71.6747 49.4157V35.9877C71.6747 35.1593 71.0031 34.4877 70.1747 34.4877H66.2154C65.387 34.4877 64.7154 35.1593 64.7154 35.9877V49.4157C64.7154 50.2441 65.387 50.9157 66.2154 50.9157Z" fill="#2DD4BF"/>
<path d="M44.7362 60.3064H48.6954C49.5238 60.3064 50.1954 59.6349 50.1954 58.8064V33.3259C50.1954 32.4975 49.5238 31.8259 48.6954 31.8259H44.7362C43.9077 31.8259 43.2362 32.4975 43.2362 33.3259V58.8064C43.2362 59.6349 43.9077 60.3064 44.7362 60.3064Z" fill="#99F6E4"/>
<path d="M44.7362 26.5699H48.6954C49.5238 26.5699 50.1954 25.8984 50.1954 25.0699V21.7969C50.1954 20.9685 49.5238 20.2969 48.6954 20.2969H44.7362C43.9077 20.2969 43.2362 20.9685 43.2362 21.7969V25.0699C43.2362 25.8984 43.9077 26.5699 44.7362 26.5699Z" fill="#99F6E4"/>
<path d="M33.9969 20.4042H37.9562C38.7846 20.4042 39.4562 19.7326 39.4562 18.9042V16.6557C39.4562 15.8273 38.7846 15.1557 37.9562 15.1557H33.9969C33.1685 15.1557 32.4969 15.8273 32.4969 16.6557V18.9042C32.4969 19.7326 33.1685 20.4042 33.9969 20.4042Z" fill="#2DD4BF"/>
<path d="M44.7362 4.84919H48.6954C49.5238 4.84919 50.1954 4.17762 50.1954 3.34919V1.55444C50.1954 0.726016 49.5238 0.0544434 48.6954 0.0544434H44.7362C43.9077 0.0544434 43.2362 0.726016 43.2362 1.55444V3.34919C43.2362 4.17762 43.9077 4.84919 44.7362 4.84919Z" fill="#99F6E4"/>
<path d="M76.9547 50.7162H80.9139C81.7423 50.7162 82.4139 50.0446 82.4139 49.2162V47.4214C82.4139 46.593 81.7423 45.9214 80.9139 45.9214H76.9547C76.1262 45.9214 75.4547 46.593 75.4547 47.4214V49.2162C75.4547 50.0446 76.1262 50.7162 76.9547 50.7162Z" fill="#14B8A6"/>
<path d="M23.2577 23.5497H27.2169C28.0453 23.5497 28.7169 22.8781 28.7169 22.0497V20.2549C28.7169 19.4265 28.0453 18.7549 27.2169 18.7549H23.2577C22.4292 18.7549 21.7577 19.4265 21.7577 20.2549V22.0497C21.7577 22.8781 22.4292 23.5497 23.2577 23.5497Z" fill="#14B8A6"/>
<path d="M12.8237 51.8517H16.7829C17.6113 51.8517 18.2829 51.1801 18.2829 50.3517V48.5569C18.2829 47.7285 17.6113 47.0569 16.7829 47.0569H12.8237C11.9952 47.0569 11.3237 47.7285 11.3237 48.5569V50.3517C11.3237 51.1801 11.9952 51.8517 12.8237 51.8517Z" fill="#0D9488"/>
<path d="M33.9969 63.5382H37.9562C38.7846 63.5382 39.4562 62.8666 39.4562 62.0382V60.2434C39.4562 59.415 38.7846 58.7434 37.9562 58.7434H33.9969C33.1685 58.7434 32.4969 59.415 32.4969 60.2434V62.0382C32.4969 62.8666 33.1685 63.5382 33.9969 63.5382Z" fill="#2DD4BF"/>
<path d="M55.4754 57.4122H59.4347C60.2631 57.4122 60.9347 56.7406 60.9347 55.9122V52.6392C60.9347 51.8108 60.2631 51.1392 59.4347 51.1392H55.4754C54.647 51.1392 53.9754 51.8108 53.9754 52.6392V55.9122C53.9754 56.7406 54.647 57.4122 55.4754 57.4122Z" fill="#5EEAD4"/>
<path d="M70.1747 24.2659H66.2154C65.387 24.2659 64.7154 24.9375 64.7154 25.7659V29.0389C64.7154 29.8674 65.387 30.5389 66.2154 30.5389H70.1747C71.0031 30.5389 71.6747 29.8674 71.6747 29.0389V25.7659C71.6747 24.9375 71.0031 24.2659 70.1747 24.2659Z" fill="#2DD4BF"/>
<path d="M44.7362 15.0394H48.6954C49.5238 15.0394 50.1954 14.3679 50.1954 13.5394V10.2664C50.1954 9.43801 49.5238 8.76644 48.6954 8.76644H44.7362C43.9077 8.76644 43.2362 9.43801 43.2362 10.2664V13.5394C43.2362 14.3679 43.9077 15.0394 44.7362 15.0394Z" fill="#99F6E4"/>
<path d="M44.7362 70.1945H48.6954C49.5238 70.1945 50.1954 69.5229 50.1954 68.6945V67.0639C50.1954 66.2355 49.5238 65.5639 48.6954 65.5639H44.7362C43.9077 65.5639 43.2362 66.2355 43.2362 67.0639V68.6945C43.2362 69.5229 43.9077 70.1945 44.7362 70.1945Z" fill="#99F6E4"/>
<path d="M33.9969 54.0087H37.9562C38.7846 54.0087 39.4562 53.3371 39.4562 52.5087V27.3874C39.4562 26.559 38.7846 25.8874 37.9562 25.8874H33.9969C33.1685 25.8874 32.4969 26.559 32.4969 27.3874V52.5087C32.4969 53.3371 33.1685 54.0087 33.9969 54.0087Z" fill="#2DD4BF"/>
<path d="M23.2577 47.0232H27.2169C28.0453 47.0232 28.7169 46.3516 28.7169 45.5232V29.5744C28.7169 28.746 28.0453 28.0744 27.2169 28.0744H23.2577C22.4292 28.0744 21.7577 28.746 21.7577 29.5744V45.5232C21.7577 46.3516 22.4292 47.0232 23.2577 47.0232Z" fill="#14B8A6"/>
<path d="M12.8237 41.8977H16.7829C17.6113 41.8977 18.2829 41.2261 18.2829 40.3977V30.3739C18.2829 29.5455 17.6113 28.8739 16.7829 28.8739H12.8237C11.9952 28.8739 11.3237 29.5455 11.3237 30.3739V40.3977C11.3237 41.2261 11.9952 41.8977 12.8237 41.8977Z" fill="#0D9488"/>
<path d="M2.34766 39.9492H6.30691C7.13533 39.9492 7.80691 39.2776 7.80691 38.4492V33.3267C7.80691 32.4983 7.13533 31.8267 6.30691 31.8267H2.34766C1.51923 31.8267 0.847656 32.4983 0.847656 33.3267V38.4492C0.847656 39.2776 1.51923 39.9492 2.34766 39.9492Z" fill="#115E59"/>
<path d="M55.4754 47.0232H59.4347C60.2631 47.0232 60.9347 46.3516 60.9347 45.5232V21.3117C60.9347 20.4833 60.2631 19.8117 59.4347 19.8117H55.4754C54.647 19.8117 53.9754 20.4833 53.9754 21.3117V45.5232C53.9754 46.3516 54.647 47.0232 55.4754 47.0232Z" fill="#5EEAD4"/>
<path d="M55.4754 15.6957H59.4347C60.2631 15.6957 60.9347 15.0241 60.9347 14.1957V12.1557C60.9347 11.3273 60.2631 10.6557 59.4347 10.6557H55.4754C54.647 10.6557 53.9754 11.3273 53.9754 12.1557V14.1957C53.9754 15.0241 54.647 15.6957 55.4754 15.6957Z" fill="#5EEAD4"/>
<path d="M55.4754 64.8229H59.4347C60.2631 64.8229 60.9347 64.1514 60.9347 63.3229V61.5282C60.9347 60.6998 60.2631 60.0282 59.4347 60.0282H55.4754C54.647 60.0282 53.9754 60.6998 53.9754 61.5282V63.3229C53.9754 64.1514 54.647 64.8229 55.4754 64.8229Z" fill="#5EEAD4"/>
</svg>
