<svg xmlns="http://www.w3.org/2000/svg" version="1.1" xmlns:xlink="http://www.w3.org/1999/xlink" xmlns:svgjs="http://svgjs.com/svgjs" width="512" height="512" x="0" y="0" viewBox="0 0 64 64" style="enable-background:new 0 0 512 512" xml:space="preserve" class=""><g><path d="M49.24 27.21c.03-.23.03-.35.05-.56l.01-.12c.25-4.99-1.33-9.37-4.45-12.35s-7.63-4.36-12.69-3.88c-9.9.95-16.54 7.57-16.54 16.47 0 4.5 1.68 9.52 4.48 13.41 1.93 2.68 2.95 5.93 2.95 9.41v3.11c0 .52.41.94.93.96-.08.26-.14.52-.14.81 0 .68.26 1.29.66 1.77-.41.48-.66 1.09-.66 1.77 0 1.36 1.01 2.49 2.31 2.69.42 1.88 2.1 3.3 4.11 3.3h5.02c2.01 0 3.69-1.41 4.11-3.3a2.731 2.731 0 0 0 2.31-2.69c0-.68-.26-1.29-.66-1.77.41-.48.66-1.09.66-1.77 0-.28-.05-.54-.13-.8h.21c.54 0 .97-.43.97-.97v-6.93c0-.3.24-.54.54-.54h2.91a3.55 3.55 0 0 0 3.55-3.55v-4.25l1.5-.18a1.72 1.72 0 0 0 1.33-.92c.27-.51.26-1.12.02-1.55zM35.28 62.06h-5.02c-.91 0-1.69-.54-2.06-1.31h9.14a2.29 2.29 0 0 1-2.06 1.31zm3.69-3.25h-12.4c-.44 0-.8-.36-.8-.8s.36-.8.8-.8h12.4c.44 0 .8.36.8.8-.01.44-.36.8-.8.8zm.79-4.33c0 .44-.36.8-.8.8h-12.4c-.44 0-.8-.36-.8-.8s.36-.8.8-.8h12.4c.45 0 .8.35.8.8zm8.91-18.87c-.49.06-.86.47-.86.96v5.11c0 .89-.72 1.61-1.61 1.61h-2.9a2.48 2.48 0 0 0-2.48 2.48v5.96H24.98V49.6c0-3.89-1.15-7.54-3.31-10.55-2.58-3.58-4.12-8.17-4.12-12.28 0-7.85 5.94-13.69 14.79-14.54 4.55-.43 8.41.72 11.16 3.35 2.7 2.58 4.07 6.44 3.85 10.85l-.01.12c-.01.22-.02.31-.07.65-.03.18 0 .37.07.54l3.39 7.62zM32.06 7.67c.54 0 .97-.43.97-.97V.97c0-.54-.43-.97-.97-.97s-.97.43-.97.97V6.7c0 .54.43.97.97.97zM42.06 10.38c.15.09.32.13.48.13.34 0 .66-.17.84-.48l2.87-4.97a.958.958 0 0 0-.36-1.32.958.958 0 0 0-1.32.36L41.7 9.06a.96.96 0 0 0 .36 1.32zM50.2 18.21c.16 0 .33-.04.48-.13l4.96-2.87c.46-.27.62-.86.36-1.32a.978.978 0 0 0-1.32-.36l-4.96 2.87c-.46.27-.62.86-.36 1.32.18.32.51.49.84.49zM58.71 26.77h-5.73c-.54 0-.97.43-.97.97s.43.97.97.97h5.73a.97.97 0 0 0 0-1.94zM13.32 37.28l-4.97 2.87a.966.966 0 1 0 .97 1.67l4.96-2.87c.46-.27.62-.86.36-1.32a.974.974 0 0 0-1.32-.35zM11.99 27.63c0-.54-.43-.97-.97-.97H5.29c-.54 0-.97.43-.97.97s.43.97.97.97h5.73c.53-.01.97-.44.97-.97zM14.34 16.3l-4.97-2.87a.958.958 0 0 0-1.32.36.958.958 0 0 0 .36 1.32l4.96 2.87c.15.09.32.13.48.13.34 0 .66-.17.84-.48a.958.958 0 0 0-.35-1.33zM20.72 9.97a.972.972 0 0 0 1.32.35c.46-.27.62-.86.36-1.32l-2.87-4.96a.969.969 0 0 0-1.68.96z" fill="#09090b" opacity="1" data-original="#000000" class=""></path><path d="M44.29 23.85a.946.946 0 0 0-.82-.05l-.17.07c-.52.2-1.11-.06-1.31-.57-.1-.26-.09-.52.02-.77s.3-.44.55-.53l.17-.07c.27-.1.48-.32.57-.59s.06-.57-.09-.82a12 12 0 0 0-3.53-3.67.973.973 0 0 0-.81-.13.98.98 0 0 0-.62.54l-.07.17c-.22.5-.85.73-1.33.52-.51-.22-.74-.82-.52-1.33l.07-.17c.12-.26.11-.56-.02-.82s-.36-.45-.64-.51c-1.65-.4-3.41-.43-5.09-.1-.28.06-.53.23-.66.49-.14.25-.16.55-.05.82l.06.17a1 1 0 0 1-.57 1.3c-.51.2-1.11-.06-1.31-.57l-.07-.17a.945.945 0 0 0-.6-.57.987.987 0 0 0-.82.09c-1.45.89-2.71 2.11-3.67 3.53-.16.24-.21.54-.13.81.08.28.28.5.54.62l.17.07c.25.11.44.3.53.56.1.25.09.53-.01.77-.22.49-.81.75-1.33.52l-.17-.07a.968.968 0 0 0-1.33.66c-.4 1.66-.43 3.42-.1 5.09.06.28.23.52.49.66.25.14.55.16.82.05l.17-.07c.53-.21 1.11.06 1.31.57.2.52-.05 1.1-.57 1.31l-.17.07c-.27.11-.47.32-.56.6-.09.27-.06.57.1.82a12 12 0 0 0 3.53 3.67c.24.16.53.2.81.13.28-.08.5-.28.62-.54l.07-.17c.21-.5.81-.74 1.33-.52.25.11.44.3.53.55.1.25.09.52-.02.77l-.07.17a.968.968 0 0 0 .66 1.33 11.788 11.788 0 0 0 5.09.1c.28-.06.53-.23.66-.49.14-.25.16-.55.05-.82l-.07-.17c-.1-.25-.09-.52.02-.77s.3-.44.55-.54c.51-.2 1.11.07 1.31.57l.07.17c.11.27.32.47.6.56.27.09.57.06.82-.09a12 12 0 0 0 3.67-3.53c.16-.24.21-.54.12-.81a.98.98 0 0 0-.54-.62l-.17-.07c-.24-.11-.43-.3-.53-.55s-.09-.52.01-.77c.22-.5.83-.74 1.33-.52l.17.07a.968.968 0 0 0 1.33-.66c.39-1.66.42-3.42.09-5.09a.915.915 0 0 0-.47-.66zm-1.32 4.33c-1.22-.09-2.4.63-2.9 1.76-.32.72-.33 1.52-.04 2.25.16.41.41.77.72 1.07-.49.59-1.05 1.13-1.66 1.6-.78-.9-2.13-1.26-3.3-.81-.73.29-1.31.84-1.63 1.56-.18.41-.26.84-.25 1.27-.76.07-1.54.06-2.3-.05.03-.43-.04-.86-.2-1.28-.29-.73-.84-1.31-1.57-1.62-1.14-.49-2.51-.19-3.32.68-.59-.49-1.13-1.05-1.6-1.66.91-.8 1.27-2.11.81-3.3-.46-1.16-1.55-1.92-2.83-1.87-.07-.76-.06-1.54.05-2.3 1.22.08 2.4-.63 2.9-1.76.31-.72.33-1.52.04-2.26-.16-.41-.41-.77-.72-1.07a9.99 9.99 0 0 1 1.66-1.59c.78.89 2.14 1.25 3.3.8 1.19-.47 1.9-1.62 1.87-2.83.77-.07 1.55-.06 2.3.04-.08 1.2.59 2.39 1.76 2.9 1.14.49 2.5.19 3.32-.68.59.49 1.13 1.05 1.6 1.66a2.95 2.95 0 0 0-.8 3.3c.46 1.16 1.57 1.92 2.83 1.87.08.78.07 1.55-.04 2.32z" fill="#09090b" opacity="1" data-original="#000000" class=""></path><path d="M32.97 20.72c-3.37 0-6.12 2.74-6.12 6.12 0 3.37 2.74 6.12 6.12 6.12 3.37 0 6.12-2.74 6.12-6.12s-2.75-6.12-6.12-6.12zm0 10.29c-2.3 0-4.18-1.88-4.18-4.18s1.87-4.18 4.18-4.18c2.3 0 4.18 1.87 4.18 4.18s-1.88 4.18-4.18 4.18z" fill="#09090b" opacity="1" data-original="#000000" class=""></path></g></svg>