<svg xmlns="http://www.w3.org/2000/svg" version="1.1" xmlns:xlink="http://www.w3.org/1999/xlink" xmlns:svgjs="http://svgjs.com/svgjs" width="512" height="512" x="0" y="0" viewBox="0 0 314 314" style="enable-background:new 0 0 512 512" xml:space="preserve" class=""><g><path d="M281.853 46.631a7.005 7.005 0 0 0-3.47-4.802l-11.257-6.271 5.297-9.511a7 7 0 1 0-12.23-6.812l-5.297 9.511-11.257-6.269a7.002 7.002 0 0 0-10.025 3.837l-13.806 40.109a7.001 7.001 0 0 0 3.213 8.394l4.741 2.642-23.115 41.501-20.055-101.85C182.703 7.516 173.563 0 163.783 0h-56.052c-9.778 0-18.918 7.516-20.809 17.11l-40.82 207.315-.006.035-13.729 69.725c-.998 5.067.205 10.132 3.3 13.895 3.093 3.762 7.829 5.92 12.993 5.92h174.195c5.163 0 9.898-2.158 12.993-5.92 3.095-3.763 4.298-8.827 3.301-13.896l-13.732-69.741-.001-.004-16.584-84.225 31.16-55.944 4.742 2.642a6.998 6.998 0 0 0 8.827-1.686l26.836-32.853a7.003 7.003 0 0 0 1.456-5.742zM100.659 19.816c.6-3.044 3.971-5.816 7.072-5.816h56.052c3.103 0 6.473 2.771 7.072 5.815l23.249 118.069L164 191.933c-6.17-2.645-13.121-4.627-21.242-5.363v-14.92h10.96a7 7 0 1 0 0-14h-10.96v-41.211h10.96a7 7 0 1 0 0-14h-10.96v-41.21h10.96a7 7 0 1 0 0-14h-10.96V34.938a7 7 0 1 0-14 0v12.291h-10.96a7 7 0 1 0 0 14h10.96v41.21h-10.96a7 7 0 1 0 0 14h10.96v41.211h-10.96a7 7 0 1 0 0 14h10.96v14.92c-19.447 1.763-32.189 10.688-43.564 18.666-7.894 5.536-14.975 10.493-23.52 12.573l38.985-197.993zm124.377 279.372c-.432.523-1.206.813-2.181.813H48.66c-.976 0-1.75-.289-2.181-.814-.432-.524-.565-1.34-.377-2.297l12.675-64.372c14.147-1.593 24.455-8.807 34.455-15.82 12.059-8.457 23.448-16.444 42.525-16.444 19.077 0 30.466 7.987 42.524 16.444 10.001 7.014 20.308 14.228 34.456 15.82l12.675 64.371c.19.957.056 1.773-.376 2.299zm-15.194-81.379c-8.545-2.08-15.627-7.037-23.521-12.574-3.175-2.227-6.456-4.527-9.959-6.726l21.928-39.367 11.552 58.667zm36.585-145.98-11.474-6.392 9.177-26.662 20.136 11.216-17.839 21.838z" fill="#f4f4f5" data-original="#000000" opacity="1" class=""></path></g></svg>