<svg xmlns="http://www.w3.org/2000/svg" version="1.1" xmlns:xlink="http://www.w3.org/1999/xlink" xmlns:svgjs="http://svgjs.com/svgjs" width="512" height="512" x="0" y="0" viewBox="0 0 512 512" style="enable-background:new 0 0 512 512" xml:space="preserve" class=""><g><path d="m385.629 124.914-120-120.5A15.013 15.013 0 0 0 255 0H55C24.672 0 0 24.746 0 55.168v401.668C0 487.254 24.672 512 55 512h280c30.328 0 55-24.746 55-55.168V135.5c0-3.969-1.57-7.773-4.371-10.586zM270 51.32l68.895 69.18H295c-13.785 0-25-11.29-25-25.168zM335 482H55c-13.785 0-25-11.29-25-25.168V55.168C30 41.289 41.215 30 55 30h185v65.332c0 30.422 24.672 55.168 55 55.168h65v306.332C360 470.711 348.785 482 335 482zm0 0" fill="#f4f4f5" data-original="#000000" opacity="1" class=""></path><path d="m281.348 211.328-120 30.125A14.993 14.993 0 0 0 150 256v75.375h-15c-24.438 0-45 19.715-45 45.25 0 24.813 20.187 45 45 45s45-20.188 45-45V267.699l90-22.594v56.145h-15c-24.438 0-45 19.715-45 45.25 0 24.813 20.188 45 45 45s45-20.188 45-45V225.875c0-9.762-9.195-16.926-18.652-14.547zM150 376.625c0 8.27-6.73 15-15 15-7.96 0-15-6.324-15-15.25 0-8.27 6.73-15 15-15h15zM270 346.5c0 8.27-6.73 15-15 15-7.96 0-15-6.324-15-15.25 0-8.27 6.73-15 15-15h15zm0 0" fill="#d4d4d8" data-original="#000000" opacity="1" class=""></path></g></svg>