<svg xmlns="http://www.w3.org/2000/svg" version="1.1" xmlns:xlink="http://www.w3.org/1999/xlink" xmlns:svgjs="http://svgjs.com/svgjs" width="512" height="512" x="0" y="0" viewBox="0 0 512 512" style="enable-background:new 0 0 512 512" xml:space="preserve" class=""><g><path d="M494.345 0H17.655C7.917.029.029 7.917 0 17.655v194.207c.029 9.739 7.917 17.626 17.655 17.655h476.69c9.739-.029 17.626-7.917 17.655-17.655V17.655C511.971 7.917 504.083.029 494.345 0zM52.966 123.586a8.828 8.828 0 0 1-17.656 0v-17.655a8.828 8.828 0 0 1 17.656 0zm35.31 17.655a8.828 8.828 0 0 1-17.656 0V88.276a8.828 8.828 0 0 1 17.656 0zm35.31-17.655a8.828 8.828 0 0 1-17.656 0v-17.655a8.828 8.828 0 0 1 17.656 0zm35.311 0a8.828 8.828 0 0 1-17.656 0v-17.655a8.828 8.828 0 0 1 17.656 0zm35.31 17.655a8.828 8.828 0 0 1-17.656 0V88.276a8.828 8.828 0 0 1 17.656 0zm35.31 8.828a8.828 8.828 0 0 1-17.656 0V79.448a8.828 8.828 0 0 1 17.656 0zm35.311 17.655a8.828 8.828 0 0 1-17.656 0V61.793a8.828 8.828 0 0 1 17.656 0zm35.31-17.655a8.828 8.828 0 0 1-17.656 0V79.448a8.828 8.828 0 0 1 17.656 0zm35.31-8.828a8.828 8.828 0 0 1-17.656 0V88.276a8.828 8.828 0 0 1 17.656 0zm35.311-17.655a8.828 8.828 0 0 1-17.656 0v-17.655a8.828 8.828 0 0 1 17.656 0zm35.31 0a8.828 8.828 0 0 1-17.656 0v-17.655a8.828 8.828 0 0 1 17.656 0zm35.31 17.655a8.828 8.828 0 0 1-17.656 0V88.276a8.828 8.828 0 0 1 17.656 0zm35.311-17.655a8.828 8.828 0 0 1-17.656 0v-17.655a8.828 8.828 0 0 1 17.656 0z" fill="#f4f4f5" data-original="#000000" class="" opacity="1"></path><g fill-rule="evenodd" clip-rule="evenodd"><path d="M494.345 282.483H17.655C7.917 282.512.029 290.399 0 300.138v132.414h46.866a15.455 15.455 0 0 1 1.88-2.304l19.562-19.571c6.162-6.121 16.11-6.121 22.272 0l3.531 3.531 46.433-46.433-3.531-3.531c-6.126-6.16-6.126-16.112 0-22.272l19.562-19.571c6.162-6.121 16.11-6.121 22.272 0l19.571 19.571a15.996 15.996 0 0 1 1.88 2.313H512v-44.147c-.029-9.739-7.917-17.626-17.655-17.655z" fill="#f4f4f5" data-original="#000000" class="" opacity="1"></path><path d="m150.8 353.086 16.87-16.87 16.87 16.87-16.87 16.87zM62.525 441.344l16.87-16.87 16.87 16.87-16.87 16.87z" fill="#f4f4f5" data-original="#000000" class="" opacity="1"></path><path d="m198.426 364.235-19.562 19.562c-6.164 6.116-16.108 6.116-22.272 0l-3.531-3.531-46.433 46.433 3.531 3.531c6.126 6.16 6.126 16.112 0 22.272l-19.562 19.562c-6.164 6.116-16.108 6.116-22.272 0l-19.58-19.544a15.996 15.996 0 0 1-1.88-2.313H0v44.138c.029 9.739 7.917 17.626 17.655 17.655h476.69c9.739-.029 17.626-7.917 17.655-17.655V361.931H200.307a15.4 15.4 0 0 1-1.881 2.304z" fill="#d4d4d8" data-original="#000000" class="" opacity="1"></path></g></g></svg>