<svg xmlns="http://www.w3.org/2000/svg" version="1.1" xmlns:xlink="http://www.w3.org/1999/xlink" xmlns:svgjs="http://svgjs.com/svgjs" width="512" height="512" x="0" y="0" viewBox="0 0 512 512" style="enable-background:new 0 0 512 512" xml:space="preserve" class=""><g><path d="M486.4 0H25.6C11.462 0 0 11.462 0 25.6v187.733c0 14.138 11.462 25.6 25.6 25.6h460.8c14.138 0 25.6-11.462 25.6-25.6V25.6C512 11.462 500.539 0 486.4 0zm8.533 213.333a8.533 8.533 0 0 1-8.533 8.533H25.6a8.533 8.533 0 0 1-8.533-8.533V25.6a8.533 8.533 0 0 1 8.533-8.533h460.8a8.533 8.533 0 0 1 8.533 8.533zM486.4 273.067H25.6c-14.138 0-25.6 11.462-25.6 25.6V486.4C0 500.539 11.462 512 25.6 512h460.8c14.138 0 25.6-11.461 25.6-25.6V298.667c0-14.139-11.461-25.6-25.6-25.6zM25.6 290.133h460.8a8.533 8.533 0 0 1 8.533 8.533v42.667h-292.77a15.42 15.42 0 0 0-1.818-2.236l-18.918-18.918c-5.957-5.917-15.573-5.917-21.53 0l-18.91 18.918c-5.922 5.955-5.922 15.575 0 21.53l3.413 3.413-44.885 44.885-3.413-3.413c-5.957-5.917-15.573-5.917-21.53 0l-18.918 18.927a14.945 14.945 0 0 0-1.818 2.227h-36.77v-128a8.535 8.535 0 0 1 8.534-8.533zm128.759 59.734 16.307-16.307 16.307 16.307-16.307 16.307zM101.641 435.2l-16.307 16.307L69.026 435.2l16.307-16.307zM486.4 494.933H25.6a8.533 8.533 0 0 1-8.533-8.533v-42.667h36.77a15.42 15.42 0 0 0 1.818 2.236l18.918 18.918c5.959 5.913 15.571 5.913 21.53 0l18.91-18.91c5.922-5.955 5.922-15.575 0-21.53l-3.413-3.413 44.885-44.885 3.413 3.413c5.959 5.913 15.571 5.913 21.53 0l18.91-18.91a14.92 14.92 0 0 0 1.826-2.253h292.77v128a8.534 8.534 0 0 1-8.534 8.534z" fill="#f4f4f5" data-original="#000000" opacity="1"></path><path d="M51.2 102.4a8.533 8.533 0 0 0-8.533 8.533V128a8.533 8.533 0 0 0 17.066 0v-17.067A8.533 8.533 0 0 0 51.2 102.4zM85.333 85.333a8.533 8.533 0 0 0-8.533 8.533v51.2a8.533 8.533 0 0 0 17.066 0v-51.2a8.533 8.533 0 0 0-8.533-8.533zM153.6 102.4a8.533 8.533 0 0 0-8.533 8.533V128a8.533 8.533 0 0 0 17.066 0v-17.067a8.533 8.533 0 0 0-8.533-8.533zM187.733 85.333a8.533 8.533 0 0 0-8.533 8.533v51.2a8.533 8.533 0 0 0 17.066 0v-51.2a8.533 8.533 0 0 0-8.533-8.533zM256 59.733a8.533 8.533 0 0 0-8.533 8.533v102.4a8.533 8.533 0 0 0 17.066 0v-102.4A8.533 8.533 0 0 0 256 59.733zM221.867 76.8a8.533 8.533 0 0 0-8.533 8.533V153.6a8.533 8.533 0 0 0 17.066 0V85.333a8.534 8.534 0 0 0-8.533-8.533zM119.467 102.4a8.533 8.533 0 0 0-8.533 8.533V128A8.533 8.533 0 0 0 128 128v-17.067a8.534 8.534 0 0 0-8.533-8.533zM460.8 102.4a8.533 8.533 0 0 0-8.533 8.533V128a8.533 8.533 0 0 0 17.066 0v-17.067a8.533 8.533 0 0 0-8.533-8.533zM426.667 85.333a8.533 8.533 0 0 0-8.533 8.533v51.2a8.533 8.533 0 0 0 17.066 0v-51.2a8.533 8.533 0 0 0-8.533-8.533zM358.4 102.4a8.533 8.533 0 0 0-8.533 8.533V128a8.533 8.533 0 0 0 17.066 0v-17.067a8.533 8.533 0 0 0-8.533-8.533zM324.267 85.333a8.533 8.533 0 0 0-8.533 8.533v51.2a8.533 8.533 0 0 0 17.066 0v-51.2a8.533 8.533 0 0 0-8.533-8.533zM290.133 76.8a8.533 8.533 0 0 0-8.533 8.533V153.6a8.533 8.533 0 0 0 17.066 0V85.333a8.533 8.533 0 0 0-8.533-8.533zM392.533 102.4a8.533 8.533 0 0 0-8.533 8.533V128a8.533 8.533 0 0 0 17.066 0v-17.067a8.533 8.533 0 0 0-8.533-8.533z" fill="#d4d4d8" data-original="#000000" opacity="1"></path></g></svg>