<svg xmlns="http://www.w3.org/2000/svg" version="1.1" xmlns:xlink="http://www.w3.org/1999/xlink" xmlns:svgjs="http://svgjs.com/svgjs" width="512" height="512" x="0" y="0" viewBox="0 0 511.999 511.999" style="enable-background:new 0 0 512 512" xml:space="preserve" class=""><g><path d="m467.117 88.631-208-88a8.008 8.008 0 0 0-6.234 0l-208 88A8.002 8.002 0 0 0 40 96v126.377c0 131.64 85.328 249.787 213.647 289.27a8.002 8.002 0 0 0 4.705 0C384.171 472.933 472 356.633 472 222.376V96a8.002 8.002 0 0 0-4.883-7.369zM456 222.376c0 125.813-80.262 235.308-200 273.242C136.262 457.684 56 348.19 56 222.376V101.301l200-84.615 200 84.615z" fill="#09090b" opacity="1" data-original="#000000"></path><path d="M223.03 314.343c9.381 9.38 24.561 9.379 33.94 0l104.687-104.687c9.735-9.736 9.735-25.578 0-35.314-9.736-9.734-25.578-9.734-35.314 0L240 260.686l-38.343-38.344c-9.736-9.734-25.577-9.734-35.313 0-9.759 9.758-9.76 25.556 0 35.314zm-45.374-80.686c3.497-3.497 9.189-3.498 12.687 0l44 44a8.001 8.001 0 0 0 11.313 0l92.001-92A8.909 8.909 0 0 1 344 183.03c7.972 0 11.957 9.7 6.343 15.313L245.656 303.029c-3.119 3.119-8.194 3.119-11.313 0l-56.687-56.687a8.965 8.965 0 0 1 0-12.685z" fill="#09090b" opacity="1" data-original="#000000"></path><path d="m252.717 48.705-160 72A7.997 7.997 0 0 0 88 128v102.483c0 104.788 66.452 198.451 165.357 233.067a8 8 0 0 0 5.614-.123l9.805-3.923C362.575 421.985 424 331.254 424 230.236V128a8 8 0 0 0-4.717-7.295l-160-72a7.997 7.997 0 0 0-6.566 0zM408 133.172v97.063c0 94.978-56.98 179.14-145.166 214.413l-6.995 2.799C164.892 414.298 104 327.489 104 230.483v-97.311l152-68.4z" fill="#09090b" opacity="1" data-original="#000000"></path></g></svg>