<svg xmlns="http://www.w3.org/2000/svg" version="1.1" xmlns:xlink="http://www.w3.org/1999/xlink" xmlns:svgjs="http://svgjs.com/svgjs" width="512" height="512" x="0" y="0" viewBox="0 0 60 60" style="enable-background:new 0 0 512 512" xml:space="preserve" class=""><g><g fill="#000" fill-rule="nonzero"><path d="M21.5 33a3.283 3.283 0 0 0 3.5-3v-5.1l7-.779V27.3a3.943 3.943 0 0 0-1.5-.3 3.283 3.283 0 0 0-3.5 3 3.283 3.283 0 0 0 3.5 3 3.283 3.283 0 0 0 3.5-3v-9a3 3 0 0 0-3.331-2.981l-5 .555A3 3 0 0 0 23 21.556V27.3a3.943 3.943 0 0 0-1.5-.3 3.283 3.283 0 0 0-3.5 3 3.283 3.283 0 0 0 3.5 3zm9-2c-.8 0-1.5-.468-1.5-1s.7-1 1.5-1 1.5.468 1.5 1-.7 1-1.5 1zm-4.61-10.437 5-.556a.965.965 0 0 1 .777.248c.213.189.335.46.333.745v1.105l-7 .778v-1.327a1 1 0 0 1 .89-.993zM21.5 29c.8 0 1.5.468 1.5 1s-.7 1-1.5 1-1.5-.468-1.5-1 .7-1 1.5-1zM46 36c-5.523 0-10 4.477-10 10s4.477 10 10 10 10-4.477 10-10c-.006-5.52-4.48-9.994-10-10zm0 18a8 8 0 1 1 8-8 8.009 8.009 0 0 1-8 8z" fill="#09090b" opacity="1" data-original="#000000" class=""></path><path d="m49.2 32.384 3.89-18.555a3.986 3.986 0 1 0-4.784-2.288l-8.961 10.4a.093.093 0 0 1-.109.045.123.123 0 0 1-.1-.088L31.424 6.037A3.963 3.963 0 0 0 32 4a4 4 0 1 0-8 0c.004.719.203 1.423.576 2.037l-7.724 15.885a.112.112 0 0 1-.092.068c-.068.017-.1-.031-.132-.072L7.69 11.541a4 4 0 1 0-4.784 2.288L7.82 37.244A3 3 0 0 0 6 40v3.181a2.844 2.844 0 0 0-1.107.692A2.937 2.937 0 0 0 4 46a3 3 0 0 0 3 3h25.332A14 14 0 1 0 49.2 32.384zM52 8a2 2 0 1 1 0 4 2 2 0 0 1 0-4zM28 2a2 2 0 1 1 0 4 2 2 0 0 1 0-4zM16.74 23.992a2.1 2.1 0 0 0 1.917-1.216l7.435-15.282a3.85 3.85 0 0 0 3.816 0l7.424 15.264a2.106 2.106 0 0 0 1.931 1.234c.63.004 1.23-.28 1.627-.769l8.673-10.073c.437.34.941.586 1.479.721l-3.814 18.191A14.218 14.218 0 0 0 46 32a13.969 13.969 0 0 0-10.708 5H9.812L4.958 13.871a3.979 3.979 0 0 0 1.479-.721l8.652 10.05c.4.502 1.009.794 1.651.792zM32.332 43H8v-3a1 1 0 0 1 1-1h24.894a13.9 13.9 0 0 0-1.562 4zM2 10a2 2 0 1 1 4 0 2 2 0 0 1-4 0zm5 37a1 1 0 0 1-1-1c0-.27.11-.528.307-.713A.959.959 0 0 1 7 45h25.051c-.024.332-.051.662-.051 1s.027.668.051 1zm39 11c-6.627 0-12-5.373-12-12s5.373-12 12-12 12 5.373 12 12c-.007 6.624-5.376 11.993-12 12z" fill="#09090b" opacity="1" data-original="#000000" class=""></path><path d="M46 45a1 1 0 1 1 .867-1.5 1 1 0 0 0 1.731-1A2.993 2.993 0 0 0 47 41.2V41a1 1 0 0 0-2 0v.184A2.993 2.993 0 0 0 46 47a1 1 0 1 1-.867 1.5 1 1 0 0 0-1.731 1c.363.61.93 1.07 1.6 1.3v.2a1 1 0 0 0 2 0v-.184A2.993 2.993 0 0 0 46 45z" fill="#09090b" opacity="1" data-original="#000000" class=""></path></g></g></svg>