<svg xmlns="http://www.w3.org/2000/svg" version="1.1" xmlns:xlink="http://www.w3.org/1999/xlink" xmlns:svgjs="http://svgjs.com/svgjs" width="512" height="512" x="0" y="0" viewBox="0 0 512 512" style="enable-background:new 0 0 512 512" xml:space="preserve" class=""><g><path d="M423.445 327.065a33.313 33.313 0 0 0-33.276-33.276h-100.7a138.457 138.457 0 0 0 .141-105.277 7.878 7.878 0 0 0-.415-.864 31.414 31.414 0 0 0-56.2 2.583 8.028 8.028 0 0 0-.661 2.668l-2.377 33.747A81.547 81.547 0 0 1 200.5 275.76c-6.182 2.17-17.5 9.846-47.026 37.941v-.839a16.7 16.7 0 0 0-16.684-16.683H52.805a16.7 16.7 0 0 0-16.683 16.683v167.6a16.7 16.7 0 0 0 16.683 16.688h83.98a16.7 16.7 0 0 0 16.684-16.683v-.735c23.094 5.094 35.147 11.148 49.206 24.208a29.265 29.265 0 0 0 20.518 8.06h130.175a33.26 33.26 0 0 0 25.607-54.5c10.389-6.249 17.78-17.437 17.78-29.324a33.112 33.112 0 0 0-7.011-20.41c10.582-6.267 18.174-17.836 18.174-30.143a33.091 33.091 0 0 0-6.211-19.339 33.332 33.332 0 0 0 21.738-31.219Zm-285.976 153.4a.71.71 0 0 1-.684.683h-83.98a.709.709 0 0 1-.683-.683v-167.6a.71.71 0 0 1 .683-.683h83.98a.711.711 0 0 1 .684.683Zm252.7-136.125h-27.805a8 8 0 1 0 0 16h12.278a17.3 17.3 0 0 1 17.276 17.276c0 9-8.894 18.156-18.022 18.946a33.154 33.154 0 0 0-10.417-1.669 8 8 0 0 0 0 16 17.2 17.2 0 0 1 5.93 1.048c.211.093.425.177.645.251a17.307 17.307 0 0 1 10.7 15.977c0 8.82-9.248 17.8-18.664 18.436a33.207 33.207 0 0 0-8.723-1.16 8 8 0 0 0 0 16 17.235 17.235 0 0 1 4.947.722c.189.068.382.13.578.184A17.277 17.277 0 0 1 353.368 496H223.193a13.389 13.389 0 0 1-9.629-3.782c-16.99-15.785-31.841-22.971-60.095-28.85V335.915l1.419-1.381c39.266-38.133 48.885-43.084 50.927-43.685a8.018 8.018 0 0 0 3.262-1.49 97.523 97.523 0 0 0 36.706-60.3 8.358 8.358 0 0 0 .106-.848l2.3-32.645a15.415 15.415 0 0 1 26.8-.52 122.526 122.526 0 0 1-5.169 103.027 8 8 0 0 0 7.083 11.72h113.266a17.277 17.277 0 0 1 0 34.553Zm-279.819-5.88v.965a8 8 0 0 1-16 0v-.965a8 8 0 0 1 16 0ZM350.4 68.582a8 8 0 0 0-6.858-5.493l-57.339-5.4-22.86-52.864a8 8 0 0 0-14.686 0L225.8 57.688l-57.338 5.4a8 8 0 0 0-4.538 13.967l43.213 38.072-12.582 56.2a8 8 0 0 0 11.881 8.632L256 150.628l49.562 29.333a8 8 0 0 0 11.881-8.632l-12.581-56.2 43.213-38.072a8 8 0 0 0 2.325-8.475Zm-59.663 37.671a8 8 0 0 0-2.518 7.75l9.574 42.765-37.713-22.321a8 8 0 0 0-8.15 0l-37.713 22.321L223.786 114a8 8 0 0 0-2.518-7.75l-32.881-28.97 43.63-4.11a8 8 0 0 0 6.592-4.79L256 28.159l17.391 40.224a8 8 0 0 0 6.592 4.79l43.631 4.11Zm200.506 9.207a8 8 0 0 0-6.858-5.493l-40.407-3.806-16.111-37.253a8 8 0 0 0-14.686 0l-16.106 37.253-40.408 3.806a8 8 0 0 0-4.538 13.968l30.453 26.829-8.866 39.606A8 8 0 0 0 385.6 199l34.927-20.671L455.451 199a8 8 0 0 0 11.882-8.632l-8.867-39.606 30.452-26.829a8 8 0 0 0 2.32-8.473Zm-46.9 26.429a8 8 0 0 0-2.518 7.75l5.859 26.17L424.6 162.15a8 8 0 0 0-8.15 0l-23.077 13.659 5.858-26.17a8 8 0 0 0-2.518-7.75l-20.123-17.727 26.7-2.516a8 8 0 0 0 6.593-4.79l10.642-24.615 10.642 24.615a8 8 0 0 0 6.593 4.79l26.7 2.516Zm-289-31.922-40.407-3.806-16.117-37.253a8 8 0 0 0-14.686 0l-16.106 37.253-40.407 3.806a8 8 0 0 0-4.538 13.968l30.452 26.829-8.867 39.606A8 8 0 0 0 56.549 199l34.927-20.671L126.4 199a8 8 0 0 0 11.881-8.632l-8.867-39.606 30.453-26.829a8 8 0 0 0-4.538-13.968Zm-40.044 31.922a8 8 0 0 0-2.518 7.75l5.858 26.169-23.088-13.658a8 8 0 0 0-8.15 0l-23.078 13.659 5.859-26.17a8 8 0 0 0-2.518-7.75l-20.122-17.727 26.7-2.516a8 8 0 0 0 6.593-4.79l10.641-24.614 10.642 24.614a8 8 0 0 0 6.592 4.79l26.7 2.516Z" fill="#09090b" opacity="1" data-original="#000000" class=""></path></g></svg>