<svg xmlns="http://www.w3.org/2000/svg" version="1.1" xmlns:xlink="http://www.w3.org/1999/xlink" xmlns:svgjs="http://svgjs.com/svgjs" width="512" height="512" x="0" y="0" viewBox="0 0 33 32" style="enable-background:new 0 0 512 512" xml:space="preserve" fill-rule="evenodd" class=""><g><path d="M15.011 26a2.012 2.012 0 1 1-.002 4.024A2.012 2.012 0 0 1 15.011 26zm8.747 0a2.012 2.012 0 1 1-.002 4.024A2.012 2.012 0 0 1 23.758 26zM1.658 5.911h2.841a1.232 1.232 0 0 1 1.188.904l3.986 14.347a3.753 3.753 0 0 0 3.616 2.749h12.142a3.753 3.753 0 0 0 3.642-2.845l2.526-10.102a1.25 1.25 0 0 0-1.213-1.553H13a1.25 1.25 0 0 0 0 2.5h15.785l-2.138 8.551a1.253 1.253 0 0 1-1.216.949H13.289a1.255 1.255 0 0 1-1.208-.918v-.001L8.095 6.145a3.731 3.731 0 0 0-3.596-2.734H1.658a1.25 1.25 0 0 0 0 2.5z" fill="#f4f4f5" opacity="1" data-original="#000000" class=""></path></g></svg>